<svg id="Capa_1" enable-background="new 0 0 512 512" height="512" viewBox="0 0 512 512" width="512" xmlns="http://www.w3.org/2000/svg"><g><g><path d="m292.337 435.294-11.793-36.794h-49.088l-11.793 36.794 34.337 5.323z" fill="#495959"/><path d="m325.96 472.5c5.545 0 10.04-4.509 10.04-10.071 0-3.496.364-5.843-.797-8.931-4.001-10.638-14.245-18.204-26.25-18.204h-105.906c-2.457 0-4.84.317-7.111.912-12.047 3.158-19.936 13.149-19.936 26.223 0 5.562 4.495 10.071 10.04 10.071z" fill="#617881"/><path d="m205.04 453.5c-5.545 0-10.04-4.509-10.04-10.071 0-2.497.328-4.916.937-7.22-12.047 3.157-20.937 14.146-20.937 27.22 0 5.562 4.495 10.071 10.04 10.071h141.92c5.545 0 10.04-4.509 10.04-10.071 0-3.496-.64-6.841-1.802-9.929z" fill="#495959"/><path d="m444.234 38.5h40.266c11.046 0 20 8.954 20 20v319c0 11.046-8.954 20-20 20h-457c-11.046 0-20-8.954-20-20v-319c0-11.046 8.954-20 20-20h381.5z" fill="#f9f8f9"/><path d="m35.5 375c-2.761 0-5-2.239-5-5v-264l-1-7.5 1-7.5v-49h-5c-11.046 0-20 8.954-20 20v319c0 11.046 8.954 20 20 20h457c11.046 0 20-8.954 20-20v-6z" fill="#efedef"/><path d="m181 158.5c0-16.569-13.431-30-30-30-3.03 0-5.955.449-8.712 1.285-12.32 3.733-20.288 15.176-20.288 28.715 0 16.569 12.431 29 29 29 13.539 0 24.982-7.968 28.715-20.288.836-2.757 1.285-5.682 1.285-8.712z" fill="#b3dafe"/><path d="m171 168.5c-16.569 0-30-13.431-30-30 0-3.03.454-5.954 1.289-8.711-12.319 3.733-21.289 15.173-21.289 28.711 0 16.569 13.431 30 30 30 13.538 0 24.978-8.97 28.711-21.289-2.757.835-5.681 1.289-8.711 1.289z" fill="#8ac9fe"/><path d="m169.5 366.5h-68c-5.523 0-10-4.477-10-10v-68c0-5.523 4.477-10 10-10l6-1h63c5.523 0 10 4.477 10 10v63l-1 6c0 5.523-4.477 10-10 10z" fill="#ee6161"/><path d="m290 366h-68c-5.523 0-10-4.477-10-10v-68c0-5.523 4.477-10 10-10l6-1h63c5.523 0 10 4.477 10 10v63l-1 6c0 5.523-4.477 10-10 10z" fill="#a2f5c3"/><path d="m410.5 366.5h-68c-5.523 0-10-4.477-10-10v-68c0-5.523 4.477-10 10-10l6-1h63c5.523 0 10 4.477 10 10v63l-1 6c0 5.523-4.477 10-10 10z" fill="#fddf80"/><path d="m110.5 350.5c-1.657 0-3-1.343-3-3v-70h-7c-5.523 0-10 4.477-10 10v70c0 5.523 4.477 10 10 10h70c5.523 0 10-4.477 10-10v-7z" fill="#e94444"/><path d="m231 350c-1.657 0-3-1.343-3-3v-70h-7c-5.523 0-10 4.477-10 10v70c0 5.523 4.477 10 10 10h70c5.523 0 10-4.477 10-10v-7z" fill="#80e29e"/><path d="m351.5 350.5c-1.657 0-3-1.343-3-3v-70h-7c-5.523 0-10 4.477-10 10v70c0 5.523 4.477 10 10 10h70c5.523 0 10-4.477 10-10v-7z" fill="#f9d070"/></g><g><path d="m484.5 31h-81.563c-4.143 0-7.5 3.357-7.5 7.5s3.357 7.5 7.5 7.5h81.563c6.893 0 12.5 5.607 12.5 12.5v32.5h-482v-32.5c0-6.893 5.607-12.5 12.5-12.5h339.989c4.143 0 7.5-3.357 7.5-7.5s-3.357-7.5-7.5-7.5h-339.989c-15.163 0-27.5 12.337-27.5 27.5v116.33c0 4.143 3.357 7.5 7.5 7.5s7.5-3.357 7.5-7.5v-68.83h482v271.5c0 6.893-5.607 12.5-12.5 12.5h-457c-6.893 0-12.5-5.607-12.5-12.5v-166.67c0-4.143-3.357-7.5-7.5-7.5s-7.5 3.357-7.5 7.5v166.67c0 15.164 12.336 27.5 27.5 27.5h193.997l-7.306 22.794h-11.144c-19.601 0-35.547 15.985-35.547 35.635 0 9.688 7.868 17.571 17.54 17.571h141.92c9.672 0 17.54-7.883 17.54-17.571 0-19.649-15.946-35.635-35.547-35.635h-11.144l-7.306-22.794h193.997c15.164 0 27.5-12.336 27.5-27.5v-319c0-15.164-12.336-27.5-27.5-27.5zm-155 432.429c0 1.418-1.14 2.571-2.54 2.571h-141.92c-1.4 0-2.54-1.153-2.54-2.571 0-11.378 9.218-20.635 20.547-20.635h105.906c11.329 0 20.547 9.257 20.547 20.635zm-47.443-35.635h-52.114l7.306-22.794h37.502z"/><path d="m37.5 61c-4.143 0-7.5 3.357-7.5 7.5s3.357 7.5 7.5 7.5h50c4.143 0 7.5-3.357 7.5-7.5s-3.357-7.5-7.5-7.5z"/><path d="m216 61c-4.143 0-7.5 3.357-7.5 7.5s3.357 7.5 7.5 7.5h80c4.143 0 7.5-3.357 7.5-7.5s-3.357-7.5-7.5-7.5z"/><path d="m188.5 158.5c0-20.678-16.822-37.5-37.5-37.5s-37.5 16.822-37.5 37.5 16.822 37.5 37.5 37.5 37.5-16.822 37.5-37.5zm-60 0c0-12.406 10.094-22.5 22.5-22.5s22.5 10.094 22.5 22.5-10.094 22.5-22.5 22.5-22.5-10.094-22.5-22.5z"/><path d="m301 121h-60c-4.143 0-7.5 3.357-7.5 7.5s3.357 7.5 7.5 7.5h60c4.143 0 7.5-3.357 7.5-7.5s-3.357-7.5-7.5-7.5z"/><path d="m360 121h-29c-4.143 0-7.5 3.357-7.5 7.5s3.357 7.5 7.5 7.5h29c4.143 0 7.5-3.357 7.5-7.5s-3.357-7.5-7.5-7.5z"/><path d="m241 166h30c4.143 0 7.5-3.357 7.5-7.5s-3.357-7.5-7.5-7.5h-30c-4.143 0-7.5 3.357-7.5 7.5s3.357 7.5 7.5 7.5z"/><path d="m293.5 158.5c0 4.143 3.357 7.5 7.5 7.5h30c4.143 0 7.5-3.357 7.5-7.5s-3.357-7.5-7.5-7.5h-30c-4.143 0-7.5 3.357-7.5 7.5z"/><path d="m353.5 158.5c0 4.143 3.357 7.5 7.5 7.5h30c4.143 0 7.5-3.357 7.5-7.5s-3.357-7.5-7.5-7.5h-30c-4.143 0-7.5 3.357-7.5 7.5z"/><path d="m241 196h90c4.143 0 7.5-3.357 7.5-7.5s-3.357-7.5-7.5-7.5h-90c-4.143 0-7.5 3.357-7.5 7.5s3.357 7.5 7.5 7.5z"/><path d="m227.5 217c0 4.143 3.357 7.5 7.5 7.5h186.5c4.143 0 7.5-3.357 7.5-7.5s-3.357-7.5-7.5-7.5h-186.5c-4.143 0-7.5 3.357-7.5 7.5z"/><path d="m83 217c0 4.143 3.357 7.5 7.5 7.5h109.585c4.143 0 7.5-3.357 7.5-7.5s-3.357-7.5-7.5-7.5h-109.585c-4.143 0-7.5 3.357-7.5 7.5z"/><path d="m193.5 247c0 4.143 3.357 7.5 7.5 7.5h40c4.143 0 7.5-3.357 7.5-7.5s-3.357-7.5-7.5-7.5h-40c-4.143 0-7.5 3.357-7.5 7.5z"/><path d="m131 239.5c-4.143 0-7.5 3.357-7.5 7.5s3.357 7.5 7.5 7.5h40c4.143 0 7.5-3.357 7.5-7.5s-3.357-7.5-7.5-7.5z"/><path d="m318.5 247c0-4.143-3.357-7.5-7.5-7.5h-40c-4.143 0-7.5 3.357-7.5 7.5s3.357 7.5 7.5 7.5h40c4.143 0 7.5-3.357 7.5-7.5z"/><path d="m381 254.5c4.143 0 7.5-3.357 7.5-7.5s-3.357-7.5-7.5-7.5h-40c-4.143 0-7.5 3.357-7.5 7.5s3.357 7.5 7.5 7.5z"/><path d="m83 357.5c0 9.649 7.851 17.5 17.5 17.5h70c9.649 0 17.5-7.851 17.5-17.5v-70c0-9.649-7.851-17.5-17.5-17.5h-70c-9.649 0-17.5 7.851-17.5 17.5zm15-70c0-1.379 1.121-2.5 2.5-2.5h70c1.379 0 2.5 1.121 2.5 2.5v70c0 1.379-1.121 2.5-2.5 2.5h-70c-1.379 0-2.5-1.121-2.5-2.5z"/><path d="m221 269.5c-9.649 0-17.5 7.851-17.5 17.5v70c0 9.649 7.851 17.5 17.5 17.5h70c9.649 0 17.5-7.851 17.5-17.5v-70c0-9.649-7.851-17.5-17.5-17.5zm72.5 17.5v70c0 1.379-1.121 2.5-2.5 2.5h-70c-1.379 0-2.5-1.121-2.5-2.5v-70c0-1.379 1.121-2.5 2.5-2.5h70c1.379 0 2.5 1.121 2.5 2.5z"/><path d="m331.5 332.755c-4.143 0-7.5 3.357-7.5 7.5v17.245c0 9.649 7.851 17.5 17.5 17.5h70c9.649 0 17.5-7.851 17.5-17.5v-70c0-9.649-7.851-17.5-17.5-17.5h-70c-9.649 0-17.5 7.851-17.5 17.5v17.713c0 4.143 3.357 7.5 7.5 7.5s7.5-3.357 7.5-7.5v-17.713c0-1.379 1.121-2.5 2.5-2.5h70c1.379 0 2.5 1.121 2.5 2.5v70c0 1.379-1.121 2.5-2.5 2.5h-70c-1.379 0-2.5-1.121-2.5-2.5v-17.245c0-4.143-3.357-7.5-7.5-7.5z"/><circle cx="389.5" cy="128.501" r="7.499"/><circle cx="384.5" cy="68.5" r="7.499"/><circle cx="414.5" cy="68.5" r="7.499"/><circle cx="444.5" cy="68.5" r="7.499"/><circle cx="474.5" cy="68.5" r="7.499"/></g></g></svg>